G04 #@! TF.GenerationSoftware,KiCad,Pcbnew,(5.1.4)-1*
G04 #@! TF.CreationDate,2020-06-06T10:26:38-06:00*
G04 #@! TF.ProjectId,pariah_staggered,70617269-6168-45f7-9374-616767657265,rev?*
G04 #@! TF.SameCoordinates,Original*
G04 #@! TF.FileFunction,Profile,NP*
%FSLAX46Y46*%
G04 Gerber Fmt 4.6, Leading zero omitted, Abs format (unit mm)*
G04 Created by KiCad (PCBNEW (5.1.4)-1) date 2020-06-06 10:26:38*
%MOMM*%
%LPD*%
G04 APERTURE LIST*
%ADD10C,0.200000*%
G04 APERTURE END LIST*
D10*
X-140057710Y61299588D02*
G75*
G02X-138088094Y62952292I1969616J-347296D01*
G01*
X-156012078Y-29182131D02*
X-140057710Y61299589D01*
X-154708836Y-31415148D02*
G75*
G02X-156012078Y-29182131I666373J1885721D01*
G01*
X-47206821Y-69404069D02*
X-154708837Y-31415149D01*
X-46887743Y-69487962D02*
G75*
G02X-47206821Y-69404069I347296J1969615D01*
G01*
X-28462485Y-72736833D02*
X-46887744Y-69487963D01*
X-28115189Y-72767217D02*
G75*
G02X-28462485Y-72736833I0J2000000D01*
G01*
X-28115189Y-72767217D02*
X28115189Y-72767217D01*
X28462485Y-72736833D02*
G75*
G02X28115189Y-72767217I-347296J1969616D01*
G01*
X28462485Y-72736833D02*
X46887744Y-69487963D01*
X47206822Y-69404069D02*
G75*
G02X46887744Y-69487963I-666375J1885722D01*
G01*
X47206821Y-69404069D02*
X154708837Y-31415149D01*
X156012078Y-29182131D02*
G75*
G02X154708837Y-31415149I-1969615J-347296D01*
G01*
X156012078Y-29182131D02*
X140057710Y61299589D01*
X138088093Y62952293D02*
G75*
G02X140057710Y61299589I1J-2000001D01*
G01*
X138088094Y62952292D02*
X6999980Y62952292D01*
X6999980Y62952292D02*
G75*
G02X4999980Y64952292I0J2000000D01*
G01*
X4999980Y64952292D02*
X4999980Y70544600D01*
X2999980Y72544600D02*
G75*
G02X4999980Y70544600I0J-2000000D01*
G01*
X-3000019Y72544600D02*
X2999980Y72544600D01*
X-5000019Y70544600D02*
G75*
G02X-3000019Y72544600I2000000J0D01*
G01*
X-5000019Y70544600D02*
X-5000019Y64952223D01*
X-5000018Y64952223D02*
G75*
G02X-6983328Y62952292I-2000001J0D01*
G01*
X-138088094Y62952292D02*
X-6983328Y62952292D01*
M02*
