M48
; DRILL file {KiCad (5.1.4)-1} date 6/6/2020 10:26:51 AM
; FORMAT={-:-/ absolute / inch / decimal}
; #@! TF.CreationDate,2020-06-06T10:26:51-06:00
; #@! TF.GenerationSoftware,Kicad,Pcbnew,(5.1.4)-1
; #@! TF.FileFunction,Plated,1,2,PTH
FMAT,2
INCH
T1C0.0157
T2C0.0236
T3C0.0394
T4C0.0400
T5C0.0579
T6C0.0709
T7C0.0787
%
G90
G05
T1
X-6.0295Y-0.7728
X-5.9772Y-0.572
X-5.9295Y-0.3197
X-5.8921Y-1.2067
X-5.8906Y-1.1571
X-5.8583Y-0.5299
X-5.8398Y0.2724
X-5.8295Y-0.4602
X-5.8146Y-0.3567
X-5.6701Y0.8713
X-5.655Y0.37
X-5.6339Y0.8453
X-5.515Y-0.35
X-5.385Y-0.4965
X-5.2453Y0.3705
X-4.77Y1.105
X-4.765Y1.625
X-3.9386Y-0.5327
X-3.2563Y-0.5366
X-2.625Y-0.775
X-2.415Y-0.7563
X-1.9559Y-0.1366
X-1.955Y-0.3596
X-1.9524Y-1.052
X-1.885Y1.7567
X-1.7515Y-0.9625
X-1.7512Y-1.2016
X-1.6539Y2.339
X-1.615Y-0.45
X-1.4165Y2.3374
X-1.3862Y-0.2835
X-1.3516Y-0.0307
X-1.2555Y0.4945
X-1.1982Y0.6496
X-1.1803Y2.3378
X-1.178Y1.9787
X-1.1382Y1.939
X-1.1234Y0.6492
X-1.115Y1.265
X-1.102Y1.9004
X-1.0734Y1.8622
X-1.0579Y-1.1346
X-1.0526Y0.5872
X-1.0445Y-0.7319
X-1.0055Y0.5929
X-0.9685Y1.2799
X-0.9662Y0.5951
X-0.9622Y-2.5217
X-0.9622Y-2.65
X-0.9269Y0.5926
X-0.92Y-1.16
X-0.85Y1.685
X-0.7506Y1.5856
X-0.676Y-1.1051
X-0.64Y-1.175
X-0.635Y-1.345
X-0.6346Y1.6461
X-0.6146Y-1.9587
X-0.605Y-1.605
X-0.5358Y1.4043
X-0.525Y-1.695
X-0.4776Y-0.9382
X-0.4642Y-2.539
X-0.4559Y-1.8
X-0.4441Y-0.0008
X-0.4146Y-0.8819
X-0.4118Y-1.1504
X-0.4083Y-0.3902
X-0.3937Y-1.0035
X-0.3835Y-0.948
X-0.375Y-1.605
X-0.35Y1.815
X-0.33Y-1.675
X-0.3079Y-0.8098
X-0.2846Y0.5528
X-0.255Y1.285
X-0.22Y0.16
X-0.1306Y2.1381
X-0.1165Y-1.4756
X-0.0945Y2.3953
X-0.0689Y-0.9374
X-0.0244Y2.4189
X-0.01Y2.04
X0.0165Y-0.6929
X0.0185Y-1.4634
X0.0189Y2.4299
X0.0291Y-2.0098
X0.0469Y-1.3835
X0.0506Y0.8581
X0.087Y-1.472
X0.0965Y2.1382
X0.1Y2.3797
X0.1354Y2.4043
X0.3031Y0.3496
X0.3106Y-1.8469
X0.3295Y1.0445
X0.3406Y-1.0409
X0.395Y-1.065
X0.4374Y-1.3283
X0.5209Y1.6075
X0.526Y-1.7898
X0.5709Y-1.1941
X0.6035Y-1.7123
X0.6129Y-1.1027
X0.6378Y-0.6921
X0.7043Y1.2207
X0.7366Y1.2815
X0.7469Y-2.2157
X0.7591Y-0.439
X0.7685Y1.2193
X0.8055Y1.2815
X0.8244Y0.561
X0.918Y1.8782
X0.9575Y1.3646
X0.9638Y-2.2776
X0.9831Y-2.4654
X0.9878Y1.5016
X1.0449Y1.3457
X1.0815Y1.4323
X1.098Y2.05
X1.1094Y-2.252
X1.2563Y1.2213
X1.3067Y0.1472
X1.3179Y0.2228
X1.3354Y0.7567
X1.3815Y0.0902
X1.445Y-0.38
X1.4671Y0.0921
X1.49Y-0.38
X1.5795Y-0.4157
X1.5937Y-0.2274
X1.6434Y-0.3666
X1.69Y0.035
X1.7146Y-1.5169
X1.9Y-0.115
X1.95Y0.075
X2.0039Y-2.1079
X2.015Y-1.06
X2.02Y1.33
X2.515Y-0.875
X2.6134Y-1.5583
X2.6134Y-2.0606
X3.34Y-0.645
X3.415Y-0.395
X3.5043Y0.1492
X3.545Y0.35
X3.5827Y-0.5953
X4.18Y1.61
X4.285Y0.355
X4.355Y1.02
X4.515Y-0.63
X4.5977Y0.2705
X5.0291Y0.7016
X5.145Y0.37
X5.1457Y1.1157
X5.1567Y-0.7669
X5.3363Y0.4036
X5.4083Y-0.585
X5.4083Y-1.1606
X5.5358Y-0.3559
X5.735Y-0.04
T3
X-0.0984Y1.8898
X-0.0984Y1.3189
X0.0Y1.3189
X0.0984Y1.8898
X0.0984Y1.3189
T4
X0.9193Y2.2504
X0.9193Y2.1504
X0.9193Y2.0504
X1.0193Y2.2504
X1.0193Y2.1504
X1.0193Y2.0504
T5
X5.424Y-0.0994
X5.6529Y0.0425
X1.4705Y0.7266
X1.6994Y0.8685
X1.6008Y-0.012
X1.8296Y0.1299
X-5.3288Y2.1685
X-5.0652Y2.2236
X-1.5483Y-2.3059
X-1.2847Y-2.2508
X-2.1567Y-1.4371
X-1.8931Y-1.3821
X5.1636Y1.3778
X5.3924Y1.5197
X-5.5893Y0.6913
X-5.3257Y0.7464
X0.6Y0.1
X0.85Y0.2
X1.3403Y1.4653
X1.5691Y1.6072
X-1.8962Y0.0401
X-1.6327Y0.0952
X3.2733Y-0.8594
X3.5022Y-0.7175
X5.5543Y-0.838
X5.7831Y-0.6961
X1.731Y-0.7506
X1.9599Y-0.6087
X-4.7204Y1.2997
X-4.4568Y1.3548
X2.5673Y-1.1743
X2.7962Y-1.0324
X4.425Y1.2476
X4.6538Y1.3895
X-5.1111Y-0.9162
X-4.8475Y-0.8611
X-3.5688Y-0.8073
X-3.3052Y-0.7522
X-4.5902Y2.0383
X-4.3266Y2.0934
X-3.4385Y-0.0687
X-3.175Y-0.0136
X4.2947Y1.9862
X4.5236Y2.1281
X-5.8497Y-0.7859
X-5.5862Y-0.7309
X4.6854Y-0.2297
X4.9143Y-0.0878
X2.8826Y1.3564
X3.1115Y1.4983
X3.0129Y0.6178
X3.2417Y0.7597
X-2.0265Y-0.6985
X-1.7629Y-0.6434
X4.0445Y-0.9138
X4.2734Y-0.7719
X-0.9Y0.1
X-0.65Y0.2
X3.6538Y1.302
X3.8826Y1.4439
X-4.9809Y-0.1776
X-4.7173Y-0.1225
X-4.2097Y-0.1231
X-3.9462Y-0.068
X1.1226Y-1.6194
X1.3515Y-1.4775
X3.784Y0.5634
X4.0129Y0.7053
X-5.459Y1.4299
X-5.1955Y1.485
X-4.34Y-0.8617
X-4.0764Y-0.8066
X5.0333Y2.1164
X5.2622Y2.2583
X1.2529Y-2.358
X1.4817Y-2.2161
X4.8157Y-0.9682
X5.0445Y-0.8263
X-2.6023Y0.355
X-2.3387Y0.4101
X-0.15Y-0.275
X0.1Y-0.175
X-3.1781Y1.4085
X-2.9145Y1.4636
X-1.766Y0.7787
X-1.5024Y0.8338
X4.5552Y0.509
X4.784Y0.6509
X-2.7325Y-0.3836
X-2.469Y-0.3285
X2.1766Y1.0416
X2.4054Y1.1835
X-3.0478Y2.1471
X-2.7843Y2.2022
X3.5236Y2.0406
X3.7524Y2.1825
X3.9143Y-0.1752
X4.1431Y-0.0333
X3.1431Y-0.1208
X3.3719Y0.0211
X-2.8628Y-1.1222
X-2.5992Y-1.0671
X2.3068Y0.3029
X2.5357Y0.4448
X5.2938Y0.6392
X5.5226Y0.7811
X-2.472Y1.0937
X-2.2085Y1.1487
X1.8613Y-1.4892
X2.0901Y-1.3473
X2.4371Y-0.4357
X2.6659Y-0.2938
X-1.6358Y1.5174
X-1.3722Y1.5724
X-0.15Y0.475
X0.1Y0.575
X-1.4181Y-1.5673
X-1.1545Y-1.5122
X-5.7195Y-0.0473
X-5.4559Y0.0077
X-2.3418Y1.8322
X-2.0782Y1.8873
X-4.8506Y0.5611
X-4.5871Y0.6161
X-3.3083Y0.6699
X-3.0447Y0.725
X2.0464Y1.7802
X2.2752Y1.922
X-3.9493Y1.3541
X-3.6857Y1.4092
X-4.0795Y0.6155
X-3.8159Y0.6706
X-3.819Y2.0927
X-3.5555Y2.1478
X2.7524Y2.095
X2.9812Y2.2369
T7
X2.9528Y-1.7717
X3.7402Y-1.7717
X3.3465Y-1.7717
X2.7559Y-1.7717
X3.5433Y-1.7717
X3.1496Y-1.7717
T2
G00X-0.1701Y2.7252
M15
G01X-0.1701Y2.7488
M16
G05
G00X-0.1701Y2.5508
M15
G01X-0.1701Y2.5941
M16
G05
G00X0.1701Y2.7252
M15
G01X0.1701Y2.7488
M16
G05
G00X0.1701Y2.5508
M15
G01X0.1701Y2.5941
M16
G05
T6
G00X-0.2244Y1.63
M15
G01X-0.2244Y1.5985
M16
G05
G00X0.2244Y1.63
M15
G01X0.2244Y1.5985
M16
G05
T0
M30
