M48
; DRILL file {KiCad (5.1.4)-1} date 6/6/2020 10:26:51 AM
; FORMAT={-:-/ absolute / inch / decimal}
; #@! TF.CreationDate,2020-06-06T10:26:51-06:00
; #@! TF.GenerationSoftware,Kicad,Pcbnew,(5.1.4)-1
; #@! TF.FileFunction,NonPlated,1,2,NPTH
FMAT,2
INCH
T1C0.0256
T2C0.0689
T3C0.1570
%
G90
G05
T1
X-0.1138Y2.5933
X0.1138Y2.5933
T2
X-3.1144Y2.0573
X-2.7205Y1.9879
X3.4917Y1.9335
X3.8856Y2.0029
X3.8824Y-0.2824
X4.2763Y-0.2129
X3.1112Y-0.2279
X3.5052Y-0.1585
X-2.9294Y-1.212
X-2.5354Y-1.2814
X2.275Y0.1958
X2.6689Y0.2652
X5.2619Y0.532
X5.6559Y0.6015
X-2.5387Y1.0039
X-2.1447Y0.9344
X1.8294Y-1.5963
X2.2233Y-1.5269
X2.4052Y-0.5428
X2.7991Y-0.4734
X-1.7024Y1.4276
X-1.3084Y1.3581
X-0.2Y0.375
X0.2Y0.375
X-1.4847Y-1.6571
X-1.0908Y-1.7265
X-5.7861Y-0.1371
X-5.3922Y-0.2066
X-2.4084Y1.7424
X-2.0145Y1.673
X-4.9172Y0.4713
X-4.5233Y0.4018
X-3.3749Y0.5801
X-2.981Y0.5106
X2.0145Y1.673
X2.4084Y1.7424
X-4.0159Y1.2643
X-3.6219Y1.1949
X-4.1461Y0.5257
X-3.7522Y0.4563
X-3.8856Y2.0029
X-3.4917Y1.9335
X2.7205Y1.9879
X3.1144Y2.0573
X5.3922Y-0.2066
X5.7861Y-0.1371
X1.4387Y0.6195
X1.8326Y0.6889
X1.5689Y-0.1191
X1.9628Y-0.0497
X-5.3954Y2.0787
X-5.0015Y2.0093
X-1.6149Y-2.3957
X-1.221Y-2.4652
X-2.2233Y-1.5269
X-1.8294Y-1.5964
X5.1317Y1.2707
X5.5256Y1.3401
X-5.6559Y0.6015
X-5.2619Y0.532
X0.55Y0.0
X0.95Y0.0
X1.3084Y1.3581
X1.7024Y1.4276
X-1.9628Y-0.0497
X-1.5689Y-0.1191
X3.2415Y-0.9665
X3.6354Y-0.8971
X5.5224Y-0.9452
X5.9163Y-0.8757
X1.6991Y-0.8578
X2.0931Y-0.7883
X-4.787Y1.2099
X-4.3931Y1.1404
X2.5354Y-1.2814
X2.9294Y-1.212
X4.3931Y1.1404
X4.787Y1.2099
X-5.1777Y-1.006
X-4.7838Y-1.0754
X-3.6354Y-0.8971
X-3.2415Y-0.9665
X-4.6568Y1.9485
X-4.2628Y1.879
X-3.5052Y-0.1585
X-3.1112Y-0.2279
X4.2628Y1.879
X4.6568Y1.9485
X-5.9163Y-0.8757
X-5.5224Y-0.9452
X4.6536Y-0.3368
X5.0475Y-0.2674
X2.8508Y1.2493
X3.2447Y1.3187
X2.981Y0.5107
X3.3749Y0.5801
X-2.0931Y-0.7883
X-1.6991Y-0.8578
X4.0126Y-1.021
X4.4066Y-0.9515
X-0.95Y0.0
X-0.55Y0.0
X3.6219Y1.1949
X4.0159Y1.2643
X-5.0475Y-0.2674
X-4.6536Y-0.3368
X-4.2763Y-0.2129
X-3.8824Y-0.2824
X1.0908Y-1.7265
X1.4847Y-1.6571
X3.7522Y0.4563
X4.1461Y0.5257
X-5.5256Y1.3401
X-5.1317Y1.2707
X-4.4066Y-0.9515
X-4.0126Y-1.021
X5.0015Y2.0093
X5.3954Y2.0787
X1.221Y-2.4652
X1.6149Y-2.3957
X4.7838Y-1.0754
X5.1777Y-1.0059
X-2.6689Y0.2652
X-2.275Y0.1958
X-0.2Y-0.375
X0.2Y-0.375
X-3.2447Y1.3187
X-2.8508Y1.2493
X-1.8326Y0.6889
X-1.4387Y0.6195
X4.5233Y0.4018
X4.9172Y0.4713
X-2.7991Y-0.4734
X-2.4052Y-0.5428
X2.1447Y0.9344
X2.5387Y1.0039
T3
X5.3287Y1.3054
X-5.4589Y0.5668
X0.75Y0.0
X1.5054Y1.3928
X-1.7659Y-0.0844
X3.4384Y-0.9318
X5.7194Y-0.9104
X1.8961Y-0.823
X-4.59Y1.1752
X2.7324Y-1.2467
X4.59Y1.1752
X-4.9807Y-1.0407
X-3.4384Y-0.9318
X-4.4598Y1.9138
X-3.3082Y-0.1932
X4.4598Y1.9138
X-5.7194Y-0.9105
X4.8505Y-0.3021
X3.0477Y1.284
X3.178Y0.5454
X-1.8961Y-0.823
X4.2096Y-0.9862
X-0.75Y0.0
X3.8189Y1.2296
X-4.8505Y-0.3021
X-4.0794Y-0.2476
X1.2877Y-1.6918
X3.9491Y0.491
X-5.3287Y1.3054
X-4.2096Y-0.9862
X5.1984Y2.044
X1.418Y-2.4304
X4.9807Y-1.0407
X-2.4719Y0.2305
X0.0Y-0.375
X-3.0477Y1.284
X-1.6356Y0.6542
X4.7203Y0.4365
X-2.6022Y-0.5081
X2.3417Y0.9691
X-2.9175Y2.0226
X3.6887Y1.9682
X4.0794Y-0.2476
X3.3082Y-0.1932
X-2.7324Y-1.2467
X2.4719Y0.2305
X5.4589Y0.5668
X-2.3417Y0.9691
X2.0263Y-1.5616
X2.6022Y-0.5081
X-1.5054Y1.3928
X0.0Y0.375
X-1.2877Y-1.6918
X-5.5891Y-0.1719
X-2.2115Y1.7077
X-4.7203Y0.4365
X-3.178Y0.5454
X2.2115Y1.7077
X-3.8189Y1.2296
X-3.9491Y0.491
X-3.6887Y1.9682
X2.9175Y2.0226
X5.5891Y-0.1719
X1.6356Y0.6542
X1.7659Y-0.0844
X-5.1984Y2.044
X-1.418Y-2.4304
X-2.0263Y-1.5617
T0
M30
