G04 #@! TF.GenerationSoftware,KiCad,Pcbnew,(5.1.4)-1*
G04 #@! TF.CreationDate,2020-06-06T10:26:38-06:00*
G04 #@! TF.ProjectId,pariah_staggered,70617269-6168-45f7-9374-616767657265,rev?*
G04 #@! TF.SameCoordinates,Original*
G04 #@! TF.FileFunction,Legend,Top*
G04 #@! TF.FilePolarity,Positive*
%FSLAX46Y46*%
G04 Gerber Fmt 4.6, Leading zero omitted, Abs format (unit mm)*
G04 Created by KiCad (PCBNEW (5.1.4)-1) date 2020-06-06 10:26:38*
%MOMM*%
%LPD*%
G04 APERTURE LIST*
%ADD10C,0.203200*%
%ADD11C,0.120000*%
%ADD12C,0.200000*%
%ADD13C,0.100000*%
%ADD14C,0.150000*%
%ADD15R,1.202000X2.002000*%
%ADD16R,0.802000X2.102000*%
%ADD17C,4.089800*%
%ADD18C,1.852000*%
%ADD19R,1.802000X1.802000*%
%ADD20C,1.802000*%
%ADD21C,1.252000*%
%ADD22C,3.102000*%
%ADD23R,0.702000X1.552000*%
%ADD24R,0.402000X1.552000*%
%ADD25O,1.102000X2.202000*%
%ADD26C,0.752000*%
%ADD27O,1.102000X1.702000*%
%ADD28R,2.902000X3.702000*%
%ADD29C,2.102000*%
G04 APERTURE END LIST*
D10*
X45230142Y58135761D02*
X45230142Y60167761D01*
X46004238Y60167761D01*
X46197761Y60071000D01*
X46294523Y59974238D01*
X46391285Y59780714D01*
X46391285Y59490428D01*
X46294523Y59296904D01*
X46197761Y59200142D01*
X46004238Y59103380D01*
X45230142Y59103380D01*
X48132999Y58135761D02*
X48132999Y59200142D01*
X48036238Y59393666D01*
X47842714Y59490428D01*
X47455666Y59490428D01*
X47262142Y59393666D01*
X48132999Y58232523D02*
X47939476Y58135761D01*
X47455666Y58135761D01*
X47262142Y58232523D01*
X47165380Y58426047D01*
X47165380Y58619571D01*
X47262142Y58813095D01*
X47455666Y58909857D01*
X47939476Y58909857D01*
X48132999Y59006619D01*
X49100619Y58135761D02*
X49100619Y59490428D01*
X49100619Y59103380D02*
X49197380Y59296904D01*
X49294142Y59393666D01*
X49487666Y59490428D01*
X49681190Y59490428D01*
X50358523Y58135761D02*
X50358523Y59490428D01*
X50358523Y60167761D02*
X50261761Y60071000D01*
X50358523Y59974238D01*
X50455285Y60071000D01*
X50358523Y60167761D01*
X50358523Y59974238D01*
X52196999Y58135761D02*
X52196999Y59200142D01*
X52100238Y59393666D01*
X51906714Y59490428D01*
X51519666Y59490428D01*
X51326142Y59393666D01*
X52196999Y58232523D02*
X52003476Y58135761D01*
X51519666Y58135761D01*
X51326142Y58232523D01*
X51229380Y58426047D01*
X51229380Y58619571D01*
X51326142Y58813095D01*
X51519666Y58909857D01*
X52003476Y58909857D01*
X52196999Y59006619D01*
X53164619Y58135761D02*
X53164619Y60167761D01*
X54035476Y58135761D02*
X54035476Y59200142D01*
X53938714Y59393666D01*
X53745190Y59490428D01*
X53454904Y59490428D01*
X53261380Y59393666D01*
X53164619Y59296904D01*
X57712428Y58135761D02*
X57035095Y59103380D01*
X56551285Y58135761D02*
X56551285Y60167761D01*
X57325380Y60167761D01*
X57518904Y60071000D01*
X57615666Y59974238D01*
X57712428Y59780714D01*
X57712428Y59490428D01*
X57615666Y59296904D01*
X57518904Y59200142D01*
X57325380Y59103380D01*
X56551285Y59103380D01*
X59357380Y58232523D02*
X59163857Y58135761D01*
X58776809Y58135761D01*
X58583285Y58232523D01*
X58486523Y58426047D01*
X58486523Y59200142D01*
X58583285Y59393666D01*
X58776809Y59490428D01*
X59163857Y59490428D01*
X59357380Y59393666D01*
X59454142Y59200142D01*
X59454142Y59006619D01*
X58486523Y58813095D01*
X60131476Y59490428D02*
X60615285Y58135761D01*
X61099095Y59490428D01*
X63808428Y60167761D02*
X64001952Y60167761D01*
X64195476Y60071000D01*
X64292238Y59974238D01*
X64388999Y59780714D01*
X64485761Y59393666D01*
X64485761Y58909857D01*
X64388999Y58522809D01*
X64292238Y58329285D01*
X64195476Y58232523D01*
X64001952Y58135761D01*
X63808428Y58135761D01*
X63614904Y58232523D01*
X63518142Y58329285D01*
X63421380Y58522809D01*
X63324619Y58909857D01*
X63324619Y59393666D01*
X63421380Y59780714D01*
X63518142Y59974238D01*
X63614904Y60071000D01*
X63808428Y60167761D01*
X65356619Y58329285D02*
X65453380Y58232523D01*
X65356619Y58135761D01*
X65259857Y58232523D01*
X65356619Y58329285D01*
X65356619Y58135761D01*
X67291857Y60167761D02*
X66324238Y60167761D01*
X66227476Y59200142D01*
X66324238Y59296904D01*
X66517761Y59393666D01*
X67001571Y59393666D01*
X67195095Y59296904D01*
X67291857Y59200142D01*
X67388619Y59006619D01*
X67388619Y58522809D01*
X67291857Y58329285D01*
X67195095Y58232523D01*
X67001571Y58135761D01*
X66517761Y58135761D01*
X66324238Y58232523D01*
X66227476Y58329285D01*
D11*
X-3570000Y-57770000D02*
X-3000000Y-57770000D01*
X-3570000Y-54510000D02*
X-3570000Y-57770000D01*
X-4950000Y-54500000D02*
X-3570000Y-54510000D01*
X-4960000Y-56530000D02*
X-4950000Y-54500000D01*
X3000000Y-57770000D02*
X3560000Y-57780000D01*
X3560000Y-56500000D02*
X3560000Y-57760000D01*
X3560000Y-54480000D02*
X3560000Y-56500000D01*
X4960000Y-54480000D02*
X3560000Y-54480000D01*
X4960000Y-56520000D02*
X4960000Y-54480000D01*
X-3000000Y-58890000D02*
X-3000000Y-60130000D01*
X3000000Y-58890000D02*
X3000000Y-60130000D01*
X-4960000Y-58890000D02*
X-3000000Y-58890000D01*
X4960000Y-58890000D02*
X3000000Y-58890000D01*
X-4960000Y-56530000D02*
X-4960000Y-58890000D01*
X4960000Y-56530000D02*
X4960000Y-58890000D01*
X3000000Y-57770000D02*
X-3000000Y-57770000D01*
X3000000Y-60130000D02*
X-3000000Y-60130000D01*
X127250393Y38827004D02*
X127248657Y38836853D01*
X118413393Y-20762995D02*
X118411657Y-20753146D01*
X36755393Y3526005D02*
X36753657Y3535854D01*
X54689393Y11525005D02*
X54687657Y11534854D01*
X40063393Y-15234995D02*
X40061657Y-15225146D01*
X98826393Y-19379995D02*
X98824657Y-19370146D01*
X88902393Y36902005D02*
X88900657Y36911854D01*
X130558393Y20066005D02*
X130556657Y20075854D01*
X92210393Y18141005D02*
X92208657Y18150854D01*
X57997393Y-7235995D02*
X57995657Y-7226146D01*
X115105393Y-2002995D02*
X115103657Y-1993146D01*
X95518393Y-619995D02*
X95516657Y-610146D01*
X133866393Y1305005D02*
X133864657Y1314854D01*
X72622393Y19523005D02*
X72620657Y19532854D01*
X111797393Y16758005D02*
X111795657Y16767854D01*
X75930393Y763005D02*
X75928657Y772854D01*
X137174393Y-17454995D02*
X137172657Y-17445146D01*
X108489393Y35519005D02*
X108487657Y35528854D01*
X-105978005Y20568607D02*
X-105976269Y20578455D01*
X33447393Y22287005D02*
X33445657Y22296854D01*
X51381393Y30286005D02*
X51379657Y30295854D01*
X69314393Y38284005D02*
X69312657Y38293854D01*
X-83082005Y40711607D02*
X-83080269Y40721455D01*
X30139393Y41048005D02*
X30137657Y41057854D01*
X48073393Y49046005D02*
X48071657Y49055854D01*
X66006393Y57044005D02*
X66004657Y57053854D01*
X105181393Y54280005D02*
X105179657Y54289854D01*
X123942392Y57588005D02*
X123940656Y57597854D01*
X85594393Y55662005D02*
X85592657Y55671854D01*
X-118949005Y56707607D02*
X-118947269Y56717455D01*
X-147634005Y3732607D02*
X-147632269Y3742455D01*
X-125565005Y19185607D02*
X-125563269Y19195455D01*
X-102670005Y39329607D02*
X-102668269Y39339455D01*
X-141018005Y41254606D02*
X-141016269Y41264454D01*
X-43907005Y43475607D02*
X-43905269Y43485455D01*
X-61841005Y51473607D02*
X-61839269Y51483455D01*
X-50523005Y5953607D02*
X-50521269Y5963455D01*
X-79774005Y59471607D02*
X-79772269Y59481455D01*
X-65149005Y32713607D02*
X-65147269Y32723455D01*
X-68457005Y13952607D02*
X-68455269Y13962455D01*
X-122257005Y37946607D02*
X-122255269Y37956455D01*
X-144326005Y22493607D02*
X-144324269Y22503455D01*
X-47215005Y24714607D02*
X-47213269Y24724455D01*
X-86390005Y21949607D02*
X-86388269Y21959455D01*
X-99362005Y58089607D02*
X-99360269Y58099455D01*
X-132181005Y-18336393D02*
X-132179269Y-18326545D01*
X-71765005Y-4808393D02*
X-71763269Y-4798545D01*
X-89698005Y3190607D02*
X-89696269Y3200455D01*
X-150942005Y-15028393D02*
X-150940269Y-15018545D01*
X-128873005Y424607D02*
X-128871269Y434455D01*
X43371393Y-33994995D02*
X43369657Y-33985146D01*
X-109286005Y1807607D02*
X-109284269Y1817455D01*
X-57139005Y-31568393D02*
X-57137269Y-31558545D01*
X61305393Y-25995995D02*
X61303657Y-25986146D01*
X-53831005Y-12807393D02*
X-53829269Y-12797545D01*
X-6990000Y16515000D02*
X-6990000Y16525000D01*
X-93006005Y-15570393D02*
X-93004269Y-15560545D01*
X12060000Y6990000D02*
X12060000Y7000000D01*
X-26040000Y6990000D02*
X-26040000Y7000000D01*
X-112594005Y-16952393D02*
X-112592269Y-16942545D01*
X-75073005Y-23568393D02*
X-75071269Y-23558545D01*
X79238393Y-17997995D02*
X79236657Y-17988146D01*
X-6990000Y-2535000D02*
X-6990000Y-2525000D01*
D12*
X22070000Y55870000D02*
X21270000Y55870000D01*
X21270000Y55870000D02*
X21270000Y53320000D01*
X21270000Y53320000D02*
X22070000Y53320000D01*
D10*
X22080000Y50810000D02*
X22080000Y58430000D01*
X27160000Y58430000D02*
X27160000Y50810000D01*
X27160000Y50810000D02*
X22080000Y50810000D01*
X22080000Y58430000D02*
X27160000Y58430000D01*
D11*
X-137710004Y60015607D02*
X-137708268Y60025455D01*
X-29012000Y55036000D02*
X-29012000Y57896000D01*
X-30932000Y55036000D02*
X-29012000Y55036000D01*
X-30932000Y57896000D02*
X-30932000Y55036000D01*
X-41077000Y55036000D02*
X-41077000Y57896000D01*
X-42997000Y55036000D02*
X-41077000Y55036000D01*
X-42997000Y57896000D02*
X-42997000Y55036000D01*
X71700000Y-45000000D02*
G75*
G03X71700000Y-45000000I-1700000J0D01*
G01*
X76700000Y-45000000D02*
G75*
G03X76700000Y-45000000I-1700000J0D01*
G01*
X81700000Y-45000000D02*
G75*
G03X81700000Y-45000000I-1700000J0D01*
G01*
X91700000Y-45000000D02*
G75*
G03X91700000Y-45000000I-1700000J0D01*
G01*
X86700000Y-45000000D02*
G75*
G03X86700000Y-45000000I-1700000J0D01*
G01*
X96700000Y-45000000D02*
G75*
G03X96700000Y-45000000I-1700000J0D01*
G01*
X4700000Y72370000D02*
X-4700000Y72370000D01*
X-4700000Y66570000D02*
X-4700000Y68570000D01*
X-4700000Y70470000D02*
X-4700000Y72370000D01*
X4700000Y66570000D02*
X4700000Y68570000D01*
X4700000Y70470000D02*
X4700000Y72370000D01*
D13*
X-5425000Y34176000D02*
X-6375000Y34176000D01*
X-6375000Y34176000D02*
X-6375000Y34851000D01*
X-5525000Y47826000D02*
X-6375000Y47826000D01*
X-6375000Y47826000D02*
X-6375000Y47151000D01*
X6375000Y34751000D02*
X6375000Y34176000D01*
X6375000Y34176000D02*
X5575000Y34176000D01*
X5675000Y47826000D02*
X6375000Y47826000D01*
X6375000Y47826000D02*
X6375000Y47326000D01*
D11*
X-36920000Y57910000D02*
X-36920000Y55050000D01*
X-36920000Y55050000D02*
X-35000000Y55050000D01*
X-35000000Y55050000D02*
X-35000000Y57910000D01*
X-38378005Y-34874393D02*
X-38376269Y-34864545D01*
X24610393Y-37301995D02*
X24608657Y-37292146D01*
X-41686005Y-53635393D02*
X-41684269Y-53625545D01*
X27918393Y-56062995D02*
X27916657Y-56053146D01*
D14*
X-313333Y-51902380D02*
X-313333Y-52616666D01*
X-360952Y-52759523D01*
X-456190Y-52854761D01*
X-599047Y-52902380D01*
X-694285Y-52902380D01*
X67619Y-51902380D02*
X686666Y-51902380D01*
X353333Y-52283333D01*
X496190Y-52283333D01*
X591428Y-52330952D01*
X639047Y-52378571D01*
X686666Y-52473809D01*
X686666Y-52711904D01*
X639047Y-52807142D01*
X591428Y-52854761D01*
X496190Y-52902380D01*
X210476Y-52902380D01*
X115238Y-52854761D01*
X67619Y-52807142D01*
D13*
X-2097619Y-57057142D02*
X-2073809Y-56985714D01*
X-2073809Y-56866666D01*
X-2097619Y-56819047D01*
X-2121428Y-56795238D01*
X-2169047Y-56771428D01*
X-2216666Y-56771428D01*
X-2264285Y-56795238D01*
X-2288095Y-56819047D01*
X-2311904Y-56866666D01*
X-2335714Y-56961904D01*
X-2359523Y-57009523D01*
X-2383333Y-57033333D01*
X-2430952Y-57057142D01*
X-2478571Y-57057142D01*
X-2526190Y-57033333D01*
X-2550000Y-57009523D01*
X-2573809Y-56961904D01*
X-2573809Y-56842857D01*
X-2550000Y-56771428D01*
X-2073809Y-56557142D02*
X-2573809Y-56557142D01*
X-2573809Y-56438095D01*
X-2550000Y-56366666D01*
X-2502380Y-56319047D01*
X-2454761Y-56295238D01*
X-2359523Y-56271428D01*
X-2288095Y-56271428D01*
X-2192857Y-56295238D01*
X-2145238Y-56319047D01*
X-2097619Y-56366666D01*
X-2073809Y-56438095D01*
X-2073809Y-56557142D01*
X-2216666Y-56080952D02*
X-2216666Y-55842857D01*
X-2073809Y-56128571D02*
X-2573809Y-55961904D01*
X-2073809Y-55795238D01*
X-597619Y-57045238D02*
X-573809Y-56973809D01*
X-573809Y-56854761D01*
X-597619Y-56807142D01*
X-621428Y-56783333D01*
X-669047Y-56759523D01*
X-716666Y-56759523D01*
X-764285Y-56783333D01*
X-788095Y-56807142D01*
X-811904Y-56854761D01*
X-835714Y-56950000D01*
X-859523Y-56997619D01*
X-883333Y-57021428D01*
X-930952Y-57045238D01*
X-978571Y-57045238D01*
X-1026190Y-57021428D01*
X-1050000Y-56997619D01*
X-1073809Y-56950000D01*
X-1073809Y-56830952D01*
X-1050000Y-56759523D01*
X-621428Y-56259523D02*
X-597619Y-56283333D01*
X-573809Y-56354761D01*
X-573809Y-56402380D01*
X-597619Y-56473809D01*
X-645238Y-56521428D01*
X-692857Y-56545238D01*
X-788095Y-56569047D01*
X-859523Y-56569047D01*
X-954761Y-56545238D01*
X-1002380Y-56521428D01*
X-1050000Y-56473809D01*
X-1073809Y-56402380D01*
X-1073809Y-56354761D01*
X-1050000Y-56283333D01*
X-1026190Y-56259523D01*
X-573809Y-55807142D02*
X-573809Y-56045238D01*
X-1073809Y-56045238D01*
X426190Y-57116666D02*
X926190Y-56950000D01*
X426190Y-56783333D01*
X878571Y-56330952D02*
X902380Y-56354761D01*
X926190Y-56426190D01*
X926190Y-56473809D01*
X902380Y-56545238D01*
X854761Y-56592857D01*
X807142Y-56616666D01*
X711904Y-56640476D01*
X640476Y-56640476D01*
X545238Y-56616666D01*
X497619Y-56592857D01*
X450000Y-56545238D01*
X426190Y-56473809D01*
X426190Y-56426190D01*
X450000Y-56354761D01*
X473809Y-56330952D01*
X878571Y-55830952D02*
X902380Y-55854761D01*
X926190Y-55926190D01*
X926190Y-55973809D01*
X902380Y-56045238D01*
X854761Y-56092857D01*
X807142Y-56116666D01*
X711904Y-56140476D01*
X640476Y-56140476D01*
X545238Y-56116666D01*
X497619Y-56092857D01*
X450000Y-56045238D01*
X426190Y-55973809D01*
X426190Y-55926190D01*
X450000Y-55854761D01*
X473809Y-55830952D01*
X2050000Y-56830952D02*
X2026190Y-56878571D01*
X2026190Y-56950000D01*
X2050000Y-57021428D01*
X2097619Y-57069047D01*
X2145238Y-57092857D01*
X2240476Y-57116666D01*
X2311904Y-57116666D01*
X2407142Y-57092857D01*
X2454761Y-57069047D01*
X2502380Y-57021428D01*
X2526190Y-56950000D01*
X2526190Y-56902380D01*
X2502380Y-56830952D01*
X2478571Y-56807142D01*
X2311904Y-56807142D01*
X2311904Y-56902380D01*
X2526190Y-56592857D02*
X2026190Y-56592857D01*
X2526190Y-56307142D01*
X2026190Y-56307142D01*
X2526190Y-56069047D02*
X2026190Y-56069047D01*
X2026190Y-55950000D01*
X2050000Y-55878571D01*
X2097619Y-55830952D01*
X2145238Y-55807142D01*
X2240476Y-55783333D01*
X2311904Y-55783333D01*
X2407142Y-55807142D01*
X2454761Y-55830952D01*
X2502380Y-55878571D01*
X2526190Y-55950000D01*
X2526190Y-56069047D01*
D14*
X-31169619Y55681714D02*
X-32169619Y55681714D01*
X-32169619Y55919809D01*
X-32122000Y56062666D01*
X-32026761Y56157904D01*
X-31931523Y56205523D01*
X-31741047Y56253142D01*
X-31598190Y56253142D01*
X-31407714Y56205523D01*
X-31312476Y56157904D01*
X-31217238Y56062666D01*
X-31169619Y55919809D01*
X-31169619Y55681714D01*
X-31741047Y56824571D02*
X-31788666Y56729333D01*
X-31836285Y56681714D01*
X-31931523Y56634095D01*
X-31979142Y56634095D01*
X-32074380Y56681714D01*
X-32122000Y56729333D01*
X-32169619Y56824571D01*
X-32169619Y57015047D01*
X-32122000Y57110285D01*
X-32074380Y57157904D01*
X-31979142Y57205523D01*
X-31931523Y57205523D01*
X-31836285Y57157904D01*
X-31788666Y57110285D01*
X-31741047Y57015047D01*
X-31741047Y56824571D01*
X-31693428Y56729333D01*
X-31645809Y56681714D01*
X-31550571Y56634095D01*
X-31360095Y56634095D01*
X-31264857Y56681714D01*
X-31217238Y56729333D01*
X-31169619Y56824571D01*
X-31169619Y57015047D01*
X-31217238Y57110285D01*
X-31264857Y57157904D01*
X-31360095Y57205523D01*
X-31550571Y57205523D01*
X-31645809Y57157904D01*
X-31693428Y57110285D01*
X-31741047Y57015047D01*
X-32074380Y57586476D02*
X-32122000Y57634095D01*
X-32169619Y57729333D01*
X-32169619Y57967428D01*
X-32122000Y58062666D01*
X-32074380Y58110285D01*
X-31979142Y58157904D01*
X-31883904Y58157904D01*
X-31741047Y58110285D01*
X-31169619Y57538857D01*
X-31169619Y58157904D01*
X-27869619Y56253142D02*
X-28345809Y55919809D01*
X-27869619Y55681714D02*
X-28869619Y55681714D01*
X-28869619Y56062666D01*
X-28822000Y56157904D01*
X-28774380Y56205523D01*
X-28679142Y56253142D01*
X-28536285Y56253142D01*
X-28441047Y56205523D01*
X-28393428Y56157904D01*
X-28345809Y56062666D01*
X-28345809Y55681714D01*
X-28393428Y56681714D02*
X-28393428Y57015047D01*
X-27869619Y57157904D02*
X-27869619Y56681714D01*
X-28869619Y56681714D01*
X-28869619Y57157904D01*
X-27869619Y57586476D02*
X-28869619Y57586476D01*
X-28869619Y57824571D01*
X-28822000Y57967428D01*
X-28726761Y58062666D01*
X-28631523Y58110285D01*
X-28441047Y58157904D01*
X-28298190Y58157904D01*
X-28107714Y58110285D01*
X-28012476Y58062666D01*
X-27917238Y57967428D01*
X-27869619Y57824571D01*
X-27869619Y57586476D01*
X-43234619Y55681714D02*
X-44234619Y55681714D01*
X-44234619Y55919809D01*
X-44187000Y56062666D01*
X-44091761Y56157904D01*
X-43996523Y56205523D01*
X-43806047Y56253142D01*
X-43663190Y56253142D01*
X-43472714Y56205523D01*
X-43377476Y56157904D01*
X-43282238Y56062666D01*
X-43234619Y55919809D01*
X-43234619Y55681714D01*
X-43806047Y56824571D02*
X-43853666Y56729333D01*
X-43901285Y56681714D01*
X-43996523Y56634095D01*
X-44044142Y56634095D01*
X-44139380Y56681714D01*
X-44187000Y56729333D01*
X-44234619Y56824571D01*
X-44234619Y57015047D01*
X-44187000Y57110285D01*
X-44139380Y57157904D01*
X-44044142Y57205523D01*
X-43996523Y57205523D01*
X-43901285Y57157904D01*
X-43853666Y57110285D01*
X-43806047Y57015047D01*
X-43806047Y56824571D01*
X-43758428Y56729333D01*
X-43710809Y56681714D01*
X-43615571Y56634095D01*
X-43425095Y56634095D01*
X-43329857Y56681714D01*
X-43282238Y56729333D01*
X-43234619Y56824571D01*
X-43234619Y57015047D01*
X-43282238Y57110285D01*
X-43329857Y57157904D01*
X-43425095Y57205523D01*
X-43615571Y57205523D01*
X-43710809Y57157904D01*
X-43758428Y57110285D01*
X-43806047Y57015047D01*
X-44234619Y57538857D02*
X-44234619Y58157904D01*
X-43853666Y57824571D01*
X-43853666Y57967428D01*
X-43806047Y58062666D01*
X-43758428Y58110285D01*
X-43663190Y58157904D01*
X-43425095Y58157904D01*
X-43329857Y58110285D01*
X-43282238Y58062666D01*
X-43234619Y57967428D01*
X-43234619Y57681714D01*
X-43282238Y57586476D01*
X-43329857Y57538857D01*
X-40887000Y55229333D02*
X-40934619Y55134095D01*
X-40934619Y54991238D01*
X-40887000Y54848380D01*
X-40791761Y54753142D01*
X-40696523Y54705523D01*
X-40506047Y54657904D01*
X-40363190Y54657904D01*
X-40172714Y54705523D01*
X-40077476Y54753142D01*
X-39982238Y54848380D01*
X-39934619Y54991238D01*
X-39934619Y55086476D01*
X-39982238Y55229333D01*
X-40029857Y55276952D01*
X-40363190Y55276952D01*
X-40363190Y55086476D01*
X-39934619Y56276952D02*
X-40410809Y55943619D01*
X-39934619Y55705523D02*
X-40934619Y55705523D01*
X-40934619Y56086476D01*
X-40887000Y56181714D01*
X-40839380Y56229333D01*
X-40744142Y56276952D01*
X-40601285Y56276952D01*
X-40506047Y56229333D01*
X-40458428Y56181714D01*
X-40410809Y56086476D01*
X-40410809Y55705523D01*
X-40458428Y56705523D02*
X-40458428Y57038857D01*
X-39934619Y57181714D02*
X-39934619Y56705523D01*
X-40934619Y56705523D01*
X-40934619Y57181714D01*
X-40458428Y57610285D02*
X-40458428Y57943619D01*
X-39934619Y58086476D02*
X-39934619Y57610285D01*
X-40934619Y57610285D01*
X-40934619Y58086476D01*
X-39934619Y58515047D02*
X-40934619Y58515047D01*
X-39934619Y59086476D01*
X-40934619Y59086476D01*
X65888476Y-44452380D02*
X65412285Y-44452380D01*
X65364666Y-44928571D01*
X65412285Y-44880952D01*
X65507523Y-44833333D01*
X65745619Y-44833333D01*
X65840857Y-44880952D01*
X65888476Y-44928571D01*
X65936095Y-45023809D01*
X65936095Y-45261904D01*
X65888476Y-45357142D01*
X65840857Y-45404761D01*
X65745619Y-45452380D01*
X65507523Y-45452380D01*
X65412285Y-45404761D01*
X65364666Y-45357142D01*
X66221809Y-44452380D02*
X66555142Y-45452380D01*
X66888476Y-44452380D01*
X67221809Y-45071428D02*
X67983714Y-45071428D01*
X67602761Y-45452380D02*
X67602761Y-44690476D01*
X73809523Y-42991761D02*
X73952380Y-43039380D01*
X74190476Y-43039380D01*
X74285714Y-42991761D01*
X74333333Y-42944142D01*
X74380952Y-42848904D01*
X74380952Y-42753666D01*
X74333333Y-42658428D01*
X74285714Y-42610809D01*
X74190476Y-42563190D01*
X74000000Y-42515571D01*
X73904761Y-42467952D01*
X73857142Y-42420333D01*
X73809523Y-42325095D01*
X73809523Y-42229857D01*
X73857142Y-42134619D01*
X73904761Y-42087000D01*
X74000000Y-42039380D01*
X74238095Y-42039380D01*
X74380952Y-42087000D01*
X75380952Y-42944142D02*
X75333333Y-42991761D01*
X75190476Y-43039380D01*
X75095238Y-43039380D01*
X74952380Y-42991761D01*
X74857142Y-42896523D01*
X74809523Y-42801285D01*
X74761904Y-42610809D01*
X74761904Y-42467952D01*
X74809523Y-42277476D01*
X74857142Y-42182238D01*
X74952380Y-42087000D01*
X75095238Y-42039380D01*
X75190476Y-42039380D01*
X75333333Y-42087000D01*
X75380952Y-42134619D01*
X76285714Y-43039380D02*
X75809523Y-43039380D01*
X75809523Y-42039380D01*
X78785714Y-42991761D02*
X78928571Y-43039380D01*
X79166666Y-43039380D01*
X79261904Y-42991761D01*
X79309523Y-42944142D01*
X79357142Y-42848904D01*
X79357142Y-42753666D01*
X79309523Y-42658428D01*
X79261904Y-42610809D01*
X79166666Y-42563190D01*
X78976190Y-42515571D01*
X78880952Y-42467952D01*
X78833333Y-42420333D01*
X78785714Y-42325095D01*
X78785714Y-42229857D01*
X78833333Y-42134619D01*
X78880952Y-42087000D01*
X78976190Y-42039380D01*
X79214285Y-42039380D01*
X79357142Y-42087000D01*
X79785714Y-43039380D02*
X79785714Y-42039380D01*
X80023809Y-42039380D01*
X80166666Y-42087000D01*
X80261904Y-42182238D01*
X80309523Y-42277476D01*
X80357142Y-42467952D01*
X80357142Y-42610809D01*
X80309523Y-42801285D01*
X80261904Y-42896523D01*
X80166666Y-42991761D01*
X80023809Y-43039380D01*
X79785714Y-43039380D01*
X80738095Y-42753666D02*
X81214285Y-42753666D01*
X80642857Y-43039380D02*
X80976190Y-42039380D01*
X81309523Y-43039380D01*
X89587285Y-42372714D02*
X89587285Y-43039380D01*
X89349190Y-41991761D02*
X89111095Y-42706047D01*
X89730142Y-42706047D01*
X90539666Y-42039380D02*
X90349190Y-42039380D01*
X90253952Y-42087000D01*
X90206333Y-42134619D01*
X90111095Y-42277476D01*
X90063476Y-42467952D01*
X90063476Y-42848904D01*
X90111095Y-42944142D01*
X90158714Y-42991761D01*
X90253952Y-43039380D01*
X90444428Y-43039380D01*
X90539666Y-42991761D01*
X90587285Y-42944142D01*
X90634904Y-42848904D01*
X90634904Y-42610809D01*
X90587285Y-42515571D01*
X90539666Y-42467952D01*
X90444428Y-42420333D01*
X90253952Y-42420333D01*
X90158714Y-42467952D01*
X90111095Y-42515571D01*
X90063476Y-42610809D01*
X84587285Y-42372714D02*
X84587285Y-43039380D01*
X84349190Y-41991761D02*
X84111095Y-42706047D01*
X84730142Y-42706047D01*
X85587285Y-42039380D02*
X85111095Y-42039380D01*
X85063476Y-42515571D01*
X85111095Y-42467952D01*
X85206333Y-42420333D01*
X85444428Y-42420333D01*
X85539666Y-42467952D01*
X85587285Y-42515571D01*
X85634904Y-42610809D01*
X85634904Y-42848904D01*
X85587285Y-42944142D01*
X85539666Y-42991761D01*
X85444428Y-43039380D01*
X85206333Y-43039380D01*
X85111095Y-42991761D01*
X85063476Y-42944142D01*
X97921095Y-44500000D02*
X97825857Y-44452380D01*
X97683000Y-44452380D01*
X97540142Y-44500000D01*
X97444904Y-44595238D01*
X97397285Y-44690476D01*
X97349666Y-44880952D01*
X97349666Y-45023809D01*
X97397285Y-45214285D01*
X97444904Y-45309523D01*
X97540142Y-45404761D01*
X97683000Y-45452380D01*
X97778238Y-45452380D01*
X97921095Y-45404761D01*
X97968714Y-45357142D01*
X97968714Y-45023809D01*
X97778238Y-45023809D01*
X98397285Y-45452380D02*
X98397285Y-44452380D01*
X98968714Y-45452380D01*
X98968714Y-44452380D01*
X99444904Y-45452380D02*
X99444904Y-44452380D01*
X99683000Y-44452380D01*
X99825857Y-44500000D01*
X99921095Y-44595238D01*
X99968714Y-44690476D01*
X100016333Y-44880952D01*
X100016333Y-45023809D01*
X99968714Y-45214285D01*
X99921095Y-45309523D01*
X99825857Y-45404761D01*
X99683000Y-45452380D01*
X99444904Y-45452380D01*
X-333333Y63372619D02*
X-333333Y62658333D01*
X-380952Y62515476D01*
X-476190Y62420238D01*
X-619047Y62372619D01*
X-714285Y62372619D01*
X95238Y63277380D02*
X142857Y63325000D01*
X238095Y63372619D01*
X476190Y63372619D01*
X571428Y63325000D01*
X619047Y63277380D01*
X666666Y63182142D01*
X666666Y63086904D01*
X619047Y62944047D01*
X47619Y62372619D01*
X666666Y62372619D01*
X-791904Y46426238D02*
X-649047Y46378619D01*
X-410952Y46378619D01*
X-315714Y46426238D01*
X-268095Y46473857D01*
X-220476Y46569095D01*
X-220476Y46664333D01*
X-268095Y46759571D01*
X-315714Y46807190D01*
X-410952Y46854809D01*
X-601428Y46902428D01*
X-696666Y46950047D01*
X-744285Y46997666D01*
X-791904Y47092904D01*
X-791904Y47188142D01*
X-744285Y47283380D01*
X-696666Y47331000D01*
X-601428Y47378619D01*
X-363333Y47378619D01*
X-220476Y47331000D01*
X731904Y46378619D02*
X160476Y46378619D01*
X446190Y46378619D02*
X446190Y47378619D01*
X350952Y47235761D01*
X255714Y47140523D01*
X160476Y47092904D01*
X-37157619Y55695714D02*
X-38157619Y55695714D01*
X-38157619Y55933809D01*
X-38110000Y56076666D01*
X-38014761Y56171904D01*
X-37919523Y56219523D01*
X-37729047Y56267142D01*
X-37586190Y56267142D01*
X-37395714Y56219523D01*
X-37300476Y56171904D01*
X-37205238Y56076666D01*
X-37157619Y55933809D01*
X-37157619Y55695714D01*
X-37729047Y56838571D02*
X-37776666Y56743333D01*
X-37824285Y56695714D01*
X-37919523Y56648095D01*
X-37967142Y56648095D01*
X-38062380Y56695714D01*
X-38110000Y56743333D01*
X-38157619Y56838571D01*
X-38157619Y57029047D01*
X-38110000Y57124285D01*
X-38062380Y57171904D01*
X-37967142Y57219523D01*
X-37919523Y57219523D01*
X-37824285Y57171904D01*
X-37776666Y57124285D01*
X-37729047Y57029047D01*
X-37729047Y56838571D01*
X-37681428Y56743333D01*
X-37633809Y56695714D01*
X-37538571Y56648095D01*
X-37348095Y56648095D01*
X-37252857Y56695714D01*
X-37205238Y56743333D01*
X-37157619Y56838571D01*
X-37157619Y57029047D01*
X-37205238Y57124285D01*
X-37252857Y57171904D01*
X-37348095Y57219523D01*
X-37538571Y57219523D01*
X-37633809Y57171904D01*
X-37681428Y57124285D01*
X-37729047Y57029047D01*
X-37157619Y58171904D02*
X-37157619Y57600476D01*
X-37157619Y57886190D02*
X-38157619Y57886190D01*
X-38014761Y57790952D01*
X-37919523Y57695714D01*
X-37871904Y57600476D01*
X-34381428Y55600476D02*
X-34333809Y55743333D01*
X-34286190Y55790952D01*
X-34190952Y55838571D01*
X-34048095Y55838571D01*
X-33952857Y55790952D01*
X-33905238Y55743333D01*
X-33857619Y55648095D01*
X-33857619Y55267142D01*
X-34857619Y55267142D01*
X-34857619Y55600476D01*
X-34810000Y55695714D01*
X-34762380Y55743333D01*
X-34667142Y55790952D01*
X-34571904Y55790952D01*
X-34476666Y55743333D01*
X-34429047Y55695714D01*
X-34381428Y55600476D01*
X-34381428Y55267142D01*
X-33857619Y56743333D02*
X-33857619Y56267142D01*
X-34857619Y56267142D01*
X-34857619Y57076666D02*
X-34048095Y57076666D01*
X-33952857Y57124285D01*
X-33905238Y57171904D01*
X-33857619Y57267142D01*
X-33857619Y57457619D01*
X-33905238Y57552857D01*
X-33952857Y57600476D01*
X-34048095Y57648095D01*
X-34857619Y57648095D01*
X-34381428Y58124285D02*
X-34381428Y58457619D01*
X-33857619Y58600476D02*
X-33857619Y58124285D01*
X-34857619Y58124285D01*
X-34857619Y58600476D01*
%LPC*%
D15*
X-4250000Y-55600000D03*
X4250000Y-55600000D03*
D16*
X-2250000Y-58950000D03*
X-750000Y-58950000D03*
X750000Y-58950000D03*
X2250000Y-58950000D03*
D17*
X135348000Y33156999D03*
D18*
X130345177Y32274866D03*
X140350823Y34039132D03*
D17*
X126511000Y-26433000D03*
D18*
X121508177Y-27315133D03*
X131513823Y-25550867D03*
D17*
X44853000Y-2144000D03*
D18*
X39850177Y-3026133D03*
X49855823Y-1261867D03*
D17*
X62787000Y5855000D03*
D18*
X57784177Y4972867D03*
X67789823Y6737133D03*
D17*
X48161000Y-20905000D03*
D18*
X43158177Y-21787133D03*
X53163823Y-20022867D03*
D17*
X106924000Y-25050000D03*
D18*
X101921177Y-25932133D03*
X111926823Y-24167867D03*
D17*
X97000000Y31232000D03*
D18*
X91997177Y30349867D03*
X102002823Y32114133D03*
D17*
X138656000Y14396000D03*
D18*
X133653177Y13513867D03*
X143658823Y15278133D03*
D17*
X100308000Y12471000D03*
D18*
X95305177Y11588867D03*
X105310823Y13353133D03*
D17*
X66095000Y-12906000D03*
D18*
X61092177Y-13788133D03*
X71097823Y-12023867D03*
D17*
X123203000Y-7673000D03*
D18*
X118200177Y-8555133D03*
X128205823Y-6790867D03*
D17*
X103616000Y-6290000D03*
D18*
X98613177Y-7172133D03*
X108618823Y-5407867D03*
D17*
X141964000Y-4365000D03*
D18*
X136961177Y-5247133D03*
X146966823Y-3482867D03*
D17*
X80720000Y13853000D03*
D18*
X75717177Y12970867D03*
X85722823Y14735133D03*
D17*
X119895000Y11088000D03*
D18*
X114892177Y10205867D03*
X124897823Y11970133D03*
D17*
X84028000Y-4907000D03*
D18*
X79025177Y-5789133D03*
X89030823Y-4024867D03*
D17*
X145272000Y-23125000D03*
D18*
X140269177Y-24007133D03*
X150274823Y-22242867D03*
D17*
X116587000Y29849000D03*
D18*
X111584177Y28966867D03*
X121589823Y30731133D03*
D17*
X-100308000Y12471000D03*
D18*
X-105310823Y13353133D03*
X-95305177Y11588867D03*
D17*
X41545000Y16617000D03*
D18*
X36542177Y15734867D03*
X46547823Y17499133D03*
D17*
X59479000Y24616000D03*
D18*
X54476177Y23733867D03*
X64481823Y25498133D03*
D17*
X77412000Y32614000D03*
D18*
X72409177Y31731867D03*
X82414823Y33496133D03*
D17*
X-77412000Y32614000D03*
D18*
X-82414823Y33496133D03*
X-72409177Y31731867D03*
D17*
X38237000Y35378000D03*
D18*
X33234177Y34495867D03*
X43239823Y36260133D03*
D17*
X56171000Y43376000D03*
D18*
X51168177Y42493867D03*
X61173823Y44258133D03*
D17*
X74104000Y51374000D03*
D18*
X69101177Y50491867D03*
X79106823Y52256133D03*
D17*
X113279000Y48610000D03*
D18*
X108276177Y47727867D03*
X118281823Y49492133D03*
D17*
X132039999Y51918000D03*
D18*
X127037176Y51035867D03*
X137042822Y52800133D03*
D17*
X93692000Y49992000D03*
D18*
X88689177Y49109867D03*
X98694823Y50874133D03*
D17*
X-113279000Y48610000D03*
D18*
X-118281823Y49492133D03*
X-108276177Y47727867D03*
D17*
X-141964000Y-4365000D03*
D18*
X-146966823Y-3482867D03*
X-136961177Y-5247133D03*
D17*
X-119895000Y11088000D03*
D18*
X-124897823Y11970133D03*
X-114892177Y10205867D03*
D17*
X-97000000Y31232000D03*
D18*
X-102002823Y32114133D03*
X-91997177Y30349867D03*
D17*
X-135348000Y33156999D03*
D18*
X-140350823Y34039132D03*
X-130345177Y32274866D03*
D17*
X-38237000Y35378000D03*
D18*
X-43239823Y36260133D03*
X-33234177Y34495867D03*
D17*
X-56171000Y43376000D03*
D18*
X-61173823Y44258133D03*
X-51168177Y42493867D03*
D17*
X-44853000Y-2144000D03*
D18*
X-49855823Y-1261867D03*
X-39850177Y-3026133D03*
D17*
X-74104000Y51374000D03*
D18*
X-79106823Y52256133D03*
X-69101177Y50491867D03*
D17*
X-59479000Y24616000D03*
D18*
X-64481823Y25498133D03*
X-54476177Y23733867D03*
D17*
X-62787000Y5855000D03*
D18*
X-67789823Y6737133D03*
X-57784177Y4972867D03*
D17*
X-116587000Y29849000D03*
D18*
X-121589823Y30731133D03*
X-111584177Y28966867D03*
D17*
X-138656000Y14396000D03*
D18*
X-143658823Y15278133D03*
X-133653177Y13513867D03*
D17*
X-41545000Y16617000D03*
D18*
X-46547823Y17499133D03*
X-36542177Y15734867D03*
D17*
X-80720000Y13852000D03*
D18*
X-85722823Y14734133D03*
X-75717177Y12969867D03*
D17*
X-93692000Y49992000D03*
D18*
X-98694823Y50874133D03*
X-88689177Y49109867D03*
D17*
X-126511000Y-26434000D03*
D18*
X-131513823Y-25551867D03*
X-121508177Y-27316133D03*
D17*
X-66095000Y-12906000D03*
D18*
X-71097823Y-12023867D03*
X-61092177Y-13788133D03*
D17*
X-84028000Y-4907000D03*
D18*
X-89030823Y-4024867D03*
X-79025177Y-5789133D03*
D17*
X-145272000Y-23126000D03*
D18*
X-150274823Y-22243867D03*
X-140269177Y-24008133D03*
D17*
X-123203000Y-7673000D03*
D18*
X-128205823Y-6790867D03*
X-118200177Y-8555133D03*
D17*
X51469000Y-39665000D03*
D18*
X46466177Y-40547133D03*
X56471823Y-38782867D03*
D17*
X-103616000Y-6290000D03*
D18*
X-108618823Y-5407867D03*
X-98613177Y-7172133D03*
D17*
X-51469000Y-39666000D03*
D18*
X-56471823Y-38783867D03*
X-46466177Y-40548133D03*
D17*
X69403000Y-31666000D03*
D18*
X64400177Y-32548133D03*
X74405823Y-30783867D03*
D17*
X-48161000Y-20905000D03*
D18*
X-53163823Y-20022867D03*
X-43158177Y-21787133D03*
D17*
X0Y9525000D03*
D18*
X-5080000Y9525000D03*
X5080000Y9525000D03*
D17*
X-87336000Y-23668000D03*
D18*
X-92338823Y-22785867D03*
X-82333177Y-24550133D03*
D17*
X19050000Y0D03*
D18*
X13970000Y0D03*
X24130000Y0D03*
D17*
X-19050000Y0D03*
D18*
X-24130000Y0D03*
X-13970000Y0D03*
D17*
X-106924000Y-25050000D03*
D18*
X-111926823Y-24167867D03*
X-101921177Y-25932133D03*
D17*
X-69403000Y-31666000D03*
D18*
X-74405823Y-30783867D03*
X-64400177Y-32548133D03*
D17*
X87336000Y-23668000D03*
D18*
X82333177Y-24550133D03*
X92338823Y-22785867D03*
D17*
X0Y-9525000D03*
D18*
X-5080000Y-9525000D03*
X5080000Y-9525000D03*
D19*
X23350000Y57160000D03*
D20*
X25890000Y57160000D03*
X23350000Y54620000D03*
X25890000Y54620000D03*
X23350000Y52080000D03*
X25890000Y52080000D03*
D17*
X-132039999Y51918000D03*
D18*
X-137042822Y52800133D03*
X-127037176Y51035867D03*
D13*
G36*
X-29466495Y58545689D02*
G01*
X-29440075Y58541770D01*
X-29414165Y58535280D01*
X-29389017Y58526282D01*
X-29364872Y58514862D01*
X-29341962Y58501131D01*
X-29320508Y58485220D01*
X-29300718Y58467282D01*
X-29282780Y58447492D01*
X-29266869Y58426038D01*
X-29253138Y58403128D01*
X-29241718Y58378983D01*
X-29232720Y58353835D01*
X-29226230Y58327925D01*
X-29222311Y58301505D01*
X-29221000Y58274827D01*
X-29221000Y57567173D01*
X-29222311Y57540495D01*
X-29226230Y57514075D01*
X-29232720Y57488165D01*
X-29241718Y57463017D01*
X-29253138Y57438872D01*
X-29266869Y57415962D01*
X-29282780Y57394508D01*
X-29300718Y57374718D01*
X-29320508Y57356780D01*
X-29341962Y57340869D01*
X-29364872Y57327138D01*
X-29389017Y57315718D01*
X-29414165Y57306720D01*
X-29440075Y57300230D01*
X-29466495Y57296311D01*
X-29493173Y57295000D01*
X-30450827Y57295000D01*
X-30477505Y57296311D01*
X-30503925Y57300230D01*
X-30529835Y57306720D01*
X-30554983Y57315718D01*
X-30579128Y57327138D01*
X-30602038Y57340869D01*
X-30623492Y57356780D01*
X-30643282Y57374718D01*
X-30661220Y57394508D01*
X-30677131Y57415962D01*
X-30690862Y57438872D01*
X-30702282Y57463017D01*
X-30711280Y57488165D01*
X-30717770Y57514075D01*
X-30721689Y57540495D01*
X-30723000Y57567173D01*
X-30723000Y58274827D01*
X-30721689Y58301505D01*
X-30717770Y58327925D01*
X-30711280Y58353835D01*
X-30702282Y58378983D01*
X-30690862Y58403128D01*
X-30677131Y58426038D01*
X-30661220Y58447492D01*
X-30643282Y58467282D01*
X-30623492Y58485220D01*
X-30602038Y58501131D01*
X-30579128Y58514862D01*
X-30554983Y58526282D01*
X-30529835Y58535280D01*
X-30503925Y58541770D01*
X-30477505Y58545689D01*
X-30450827Y58547000D01*
X-29493173Y58547000D01*
X-29466495Y58545689D01*
X-29466495Y58545689D01*
G37*
D21*
X-29972000Y57921000D03*
D13*
G36*
X-29466495Y56495689D02*
G01*
X-29440075Y56491770D01*
X-29414165Y56485280D01*
X-29389017Y56476282D01*
X-29364872Y56464862D01*
X-29341962Y56451131D01*
X-29320508Y56435220D01*
X-29300718Y56417282D01*
X-29282780Y56397492D01*
X-29266869Y56376038D01*
X-29253138Y56353128D01*
X-29241718Y56328983D01*
X-29232720Y56303835D01*
X-29226230Y56277925D01*
X-29222311Y56251505D01*
X-29221000Y56224827D01*
X-29221000Y55517173D01*
X-29222311Y55490495D01*
X-29226230Y55464075D01*
X-29232720Y55438165D01*
X-29241718Y55413017D01*
X-29253138Y55388872D01*
X-29266869Y55365962D01*
X-29282780Y55344508D01*
X-29300718Y55324718D01*
X-29320508Y55306780D01*
X-29341962Y55290869D01*
X-29364872Y55277138D01*
X-29389017Y55265718D01*
X-29414165Y55256720D01*
X-29440075Y55250230D01*
X-29466495Y55246311D01*
X-29493173Y55245000D01*
X-30450827Y55245000D01*
X-30477505Y55246311D01*
X-30503925Y55250230D01*
X-30529835Y55256720D01*
X-30554983Y55265718D01*
X-30579128Y55277138D01*
X-30602038Y55290869D01*
X-30623492Y55306780D01*
X-30643282Y55324718D01*
X-30661220Y55344508D01*
X-30677131Y55365962D01*
X-30690862Y55388872D01*
X-30702282Y55413017D01*
X-30711280Y55438165D01*
X-30717770Y55464075D01*
X-30721689Y55490495D01*
X-30723000Y55517173D01*
X-30723000Y56224827D01*
X-30721689Y56251505D01*
X-30717770Y56277925D01*
X-30711280Y56303835D01*
X-30702282Y56328983D01*
X-30690862Y56353128D01*
X-30677131Y56376038D01*
X-30661220Y56397492D01*
X-30643282Y56417282D01*
X-30623492Y56435220D01*
X-30602038Y56451131D01*
X-30579128Y56464862D01*
X-30554983Y56476282D01*
X-30529835Y56485280D01*
X-30503925Y56491770D01*
X-30477505Y56495689D01*
X-30450827Y56497000D01*
X-29493173Y56497000D01*
X-29466495Y56495689D01*
X-29466495Y56495689D01*
G37*
D21*
X-29972000Y55871000D03*
D13*
G36*
X-41531495Y58545689D02*
G01*
X-41505075Y58541770D01*
X-41479165Y58535280D01*
X-41454017Y58526282D01*
X-41429872Y58514862D01*
X-41406962Y58501131D01*
X-41385508Y58485220D01*
X-41365718Y58467282D01*
X-41347780Y58447492D01*
X-41331869Y58426038D01*
X-41318138Y58403128D01*
X-41306718Y58378983D01*
X-41297720Y58353835D01*
X-41291230Y58327925D01*
X-41287311Y58301505D01*
X-41286000Y58274827D01*
X-41286000Y57567173D01*
X-41287311Y57540495D01*
X-41291230Y57514075D01*
X-41297720Y57488165D01*
X-41306718Y57463017D01*
X-41318138Y57438872D01*
X-41331869Y57415962D01*
X-41347780Y57394508D01*
X-41365718Y57374718D01*
X-41385508Y57356780D01*
X-41406962Y57340869D01*
X-41429872Y57327138D01*
X-41454017Y57315718D01*
X-41479165Y57306720D01*
X-41505075Y57300230D01*
X-41531495Y57296311D01*
X-41558173Y57295000D01*
X-42515827Y57295000D01*
X-42542505Y57296311D01*
X-42568925Y57300230D01*
X-42594835Y57306720D01*
X-42619983Y57315718D01*
X-42644128Y57327138D01*
X-42667038Y57340869D01*
X-42688492Y57356780D01*
X-42708282Y57374718D01*
X-42726220Y57394508D01*
X-42742131Y57415962D01*
X-42755862Y57438872D01*
X-42767282Y57463017D01*
X-42776280Y57488165D01*
X-42782770Y57514075D01*
X-42786689Y57540495D01*
X-42788000Y57567173D01*
X-42788000Y58274827D01*
X-42786689Y58301505D01*
X-42782770Y58327925D01*
X-42776280Y58353835D01*
X-42767282Y58378983D01*
X-42755862Y58403128D01*
X-42742131Y58426038D01*
X-42726220Y58447492D01*
X-42708282Y58467282D01*
X-42688492Y58485220D01*
X-42667038Y58501131D01*
X-42644128Y58514862D01*
X-42619983Y58526282D01*
X-42594835Y58535280D01*
X-42568925Y58541770D01*
X-42542505Y58545689D01*
X-42515827Y58547000D01*
X-41558173Y58547000D01*
X-41531495Y58545689D01*
X-41531495Y58545689D01*
G37*
D21*
X-42037000Y57921000D03*
D13*
G36*
X-41531495Y56495689D02*
G01*
X-41505075Y56491770D01*
X-41479165Y56485280D01*
X-41454017Y56476282D01*
X-41429872Y56464862D01*
X-41406962Y56451131D01*
X-41385508Y56435220D01*
X-41365718Y56417282D01*
X-41347780Y56397492D01*
X-41331869Y56376038D01*
X-41318138Y56353128D01*
X-41306718Y56328983D01*
X-41297720Y56303835D01*
X-41291230Y56277925D01*
X-41287311Y56251505D01*
X-41286000Y56224827D01*
X-41286000Y55517173D01*
X-41287311Y55490495D01*
X-41291230Y55464075D01*
X-41297720Y55438165D01*
X-41306718Y55413017D01*
X-41318138Y55388872D01*
X-41331869Y55365962D01*
X-41347780Y55344508D01*
X-41365718Y55324718D01*
X-41385508Y55306780D01*
X-41406962Y55290869D01*
X-41429872Y55277138D01*
X-41454017Y55265718D01*
X-41479165Y55256720D01*
X-41505075Y55250230D01*
X-41531495Y55246311D01*
X-41558173Y55245000D01*
X-42515827Y55245000D01*
X-42542505Y55246311D01*
X-42568925Y55250230D01*
X-42594835Y55256720D01*
X-42619983Y55265718D01*
X-42644128Y55277138D01*
X-42667038Y55290869D01*
X-42688492Y55306780D01*
X-42708282Y55324718D01*
X-42726220Y55344508D01*
X-42742131Y55365962D01*
X-42755862Y55388872D01*
X-42767282Y55413017D01*
X-42776280Y55438165D01*
X-42782770Y55464075D01*
X-42786689Y55490495D01*
X-42788000Y55517173D01*
X-42788000Y56224827D01*
X-42786689Y56251505D01*
X-42782770Y56277925D01*
X-42776280Y56303835D01*
X-42767282Y56328983D01*
X-42755862Y56353128D01*
X-42742131Y56376038D01*
X-42726220Y56397492D01*
X-42708282Y56417282D01*
X-42688492Y56435220D01*
X-42667038Y56451131D01*
X-42644128Y56464862D01*
X-42619983Y56476282D01*
X-42594835Y56485280D01*
X-42568925Y56491770D01*
X-42542505Y56495689D01*
X-42515827Y56497000D01*
X-41558173Y56497000D01*
X-41531495Y56495689D01*
X-41531495Y56495689D01*
G37*
D21*
X-42037000Y55871000D03*
D22*
X70000000Y-45000000D03*
X75000000Y-45000000D03*
X80000000Y-45000000D03*
X90000000Y-45000000D03*
X85000000Y-45000000D03*
X95000000Y-45000000D03*
D23*
X-3250000Y64425000D03*
X-2450000Y64425000D03*
X2450000Y64425000D03*
X3250000Y64425000D03*
X3250000Y64425000D03*
X2450000Y64425000D03*
X-2450000Y64425000D03*
X-3250000Y64425000D03*
D24*
X1750000Y64425000D03*
X1250000Y64425000D03*
X750000Y64425000D03*
X-250000Y64425000D03*
X-750000Y64425000D03*
X-1250000Y64425000D03*
X-1750000Y64425000D03*
X250000Y64425000D03*
D25*
X-4320000Y65340000D03*
X4320000Y65340000D03*
D26*
X2890000Y65870000D03*
D27*
X4320000Y69520000D03*
D26*
X-2890000Y65870000D03*
D27*
X-4320000Y69520000D03*
D28*
X-5700000Y41001000D03*
X5700000Y41001000D03*
D29*
X-2500000Y48001000D03*
X2500000Y48001000D03*
X-2500000Y33501000D03*
X0Y33501000D03*
X2500000Y33501000D03*
D13*
G36*
X-35454495Y56509689D02*
G01*
X-35428075Y56505770D01*
X-35402165Y56499280D01*
X-35377017Y56490282D01*
X-35352872Y56478862D01*
X-35329962Y56465131D01*
X-35308508Y56449220D01*
X-35288718Y56431282D01*
X-35270780Y56411492D01*
X-35254869Y56390038D01*
X-35241138Y56367128D01*
X-35229718Y56342983D01*
X-35220720Y56317835D01*
X-35214230Y56291925D01*
X-35210311Y56265505D01*
X-35209000Y56238827D01*
X-35209000Y55531173D01*
X-35210311Y55504495D01*
X-35214230Y55478075D01*
X-35220720Y55452165D01*
X-35229718Y55427017D01*
X-35241138Y55402872D01*
X-35254869Y55379962D01*
X-35270780Y55358508D01*
X-35288718Y55338718D01*
X-35308508Y55320780D01*
X-35329962Y55304869D01*
X-35352872Y55291138D01*
X-35377017Y55279718D01*
X-35402165Y55270720D01*
X-35428075Y55264230D01*
X-35454495Y55260311D01*
X-35481173Y55259000D01*
X-36438827Y55259000D01*
X-36465505Y55260311D01*
X-36491925Y55264230D01*
X-36517835Y55270720D01*
X-36542983Y55279718D01*
X-36567128Y55291138D01*
X-36590038Y55304869D01*
X-36611492Y55320780D01*
X-36631282Y55338718D01*
X-36649220Y55358508D01*
X-36665131Y55379962D01*
X-36678862Y55402872D01*
X-36690282Y55427017D01*
X-36699280Y55452165D01*
X-36705770Y55478075D01*
X-36709689Y55504495D01*
X-36711000Y55531173D01*
X-36711000Y56238827D01*
X-36709689Y56265505D01*
X-36705770Y56291925D01*
X-36699280Y56317835D01*
X-36690282Y56342983D01*
X-36678862Y56367128D01*
X-36665131Y56390038D01*
X-36649220Y56411492D01*
X-36631282Y56431282D01*
X-36611492Y56449220D01*
X-36590038Y56465131D01*
X-36567128Y56478862D01*
X-36542983Y56490282D01*
X-36517835Y56499280D01*
X-36491925Y56505770D01*
X-36465505Y56509689D01*
X-36438827Y56511000D01*
X-35481173Y56511000D01*
X-35454495Y56509689D01*
X-35454495Y56509689D01*
G37*
D21*
X-35960000Y55885000D03*
D13*
G36*
X-35454495Y58559689D02*
G01*
X-35428075Y58555770D01*
X-35402165Y58549280D01*
X-35377017Y58540282D01*
X-35352872Y58528862D01*
X-35329962Y58515131D01*
X-35308508Y58499220D01*
X-35288718Y58481282D01*
X-35270780Y58461492D01*
X-35254869Y58440038D01*
X-35241138Y58417128D01*
X-35229718Y58392983D01*
X-35220720Y58367835D01*
X-35214230Y58341925D01*
X-35210311Y58315505D01*
X-35209000Y58288827D01*
X-35209000Y57581173D01*
X-35210311Y57554495D01*
X-35214230Y57528075D01*
X-35220720Y57502165D01*
X-35229718Y57477017D01*
X-35241138Y57452872D01*
X-35254869Y57429962D01*
X-35270780Y57408508D01*
X-35288718Y57388718D01*
X-35308508Y57370780D01*
X-35329962Y57354869D01*
X-35352872Y57341138D01*
X-35377017Y57329718D01*
X-35402165Y57320720D01*
X-35428075Y57314230D01*
X-35454495Y57310311D01*
X-35481173Y57309000D01*
X-36438827Y57309000D01*
X-36465505Y57310311D01*
X-36491925Y57314230D01*
X-36517835Y57320720D01*
X-36542983Y57329718D01*
X-36567128Y57341138D01*
X-36590038Y57354869D01*
X-36611492Y57370780D01*
X-36631282Y57388718D01*
X-36649220Y57408508D01*
X-36665131Y57429962D01*
X-36678862Y57452872D01*
X-36690282Y57477017D01*
X-36699280Y57502165D01*
X-36705770Y57528075D01*
X-36709689Y57554495D01*
X-36711000Y57581173D01*
X-36711000Y58288827D01*
X-36709689Y58315505D01*
X-36705770Y58341925D01*
X-36699280Y58367835D01*
X-36690282Y58392983D01*
X-36678862Y58417128D01*
X-36665131Y58440038D01*
X-36649220Y58461492D01*
X-36631282Y58481282D01*
X-36611492Y58499220D01*
X-36590038Y58515131D01*
X-36567128Y58528862D01*
X-36542983Y58540282D01*
X-36517835Y58549280D01*
X-36491925Y58555770D01*
X-36465505Y58559689D01*
X-36438827Y58561000D01*
X-35481173Y58561000D01*
X-35454495Y58559689D01*
X-35454495Y58559689D01*
G37*
D21*
X-35960000Y57935000D03*
D18*
X-27705177Y-43854133D03*
X-37710823Y-42089867D03*
D17*
X-32708000Y-42972000D03*
X32708000Y-42972000D03*
D18*
X27705177Y-43854133D03*
X37710823Y-42089867D03*
X-31013177Y-62615133D03*
X-41018823Y-60850867D03*
D17*
X-36016000Y-61733000D03*
X36016000Y-61733000D03*
D18*
X31013177Y-62615133D03*
X41018823Y-60850867D03*
M02*
